<svg width="187" height="187" viewBox="0 0 187 187" fill="none" xmlns="http://www.w3.org/2000/svg">
    <g filter="url(#filter0_d_32_2895)">
        <g opacity="0.5" filter="url(#filter1_d_32_2895)">
            <path d="M170.582 100.787L170.731 99.1199C170.761 98.7792 170.724 98.4867 170.619 98.2425C170.512 98.0162 170.391 97.8608 170.254 97.7763C169.859 97.5424 169.674 97.282 169.7 96.9951L169.85 95.3008C169.877 94.996 170.043 94.8572 170.348 94.8843L178.793 95.6356C179.098 95.6627 179.236 95.8287 179.209 96.1335L178.399 105.25C178.37 105.573 178.203 105.721 177.899 105.694L176.366 105.558C176.061 105.53 175.923 105.355 175.951 105.033L176.568 98.0941L171.674 97.6587C172.525 98.0416 172.897 98.8337 172.791 100.035L172.65 101.622C172.535 102.913 172.106 103.868 171.365 104.489C170.641 105.111 169.624 105.364 168.315 105.248L165.196 104.97C163.887 104.854 162.898 104.395 162.228 103.595C161.558 102.794 161.281 101.74 161.398 100.431L161.601 98.145C161.719 96.8182 162.178 95.82 162.979 95.1503C163.777 94.4985 164.831 94.2309 166.14 94.3473L166.839 94.4095C167.162 94.4382 167.31 94.605 167.283 94.9098L167.132 96.6041C167.105 96.9089 166.93 97.0469 166.607 97.0182L165.935 96.9584C164.626 96.842 163.915 97.4292 163.8 98.7201L163.663 100.253C163.546 101.58 164.141 102.301 165.45 102.418L168.166 102.66C168.973 102.731 169.561 102.621 169.93 102.329C170.298 102.054 170.515 101.54 170.582 100.787Z" fill="white"/>
        </g>
        <g opacity="0.5" filter="url(#filter2_d_32_2895)">
            <path d="M156.887 118.823L157.512 117.212C157.623 116.927 157.821 116.84 158.106 116.951L163.668 119.11L175.235 118.185C175.395 118.17 175.505 118.212 175.562 118.312C175.62 118.412 175.626 118.52 175.581 118.638L174.8 120.651C174.715 120.87 174.507 120.982 174.176 120.989L166.053 121.398L165.995 121.549L171.735 127.282C171.981 127.493 172.058 127.716 171.967 127.951L171.186 129.965C171.134 130.099 171.056 130.175 170.953 130.193C170.843 130.228 170.734 130.185 170.626 130.066L162.711 121.577L157.149 119.417C156.863 119.307 156.776 119.109 156.887 118.823Z" fill="white"/>
        </g>
        <g opacity="0.5" filter="url(#filter3_d_32_2895)">
            <path d="M149.051 133.376L152.144 128.433C152.851 127.303 153.713 126.622 154.73 126.388C155.737 126.169 156.798 126.409 157.911 127.106L162.488 129.972C163.617 130.679 164.296 131.529 164.524 132.521C164.758 133.539 164.522 134.612 163.815 135.741L162.641 137.618C161.934 138.747 161.072 139.428 160.055 139.662C159.053 139.906 157.988 139.674 156.859 138.967L153.953 137.147C153.678 136.975 153.627 136.752 153.799 136.477L157.637 130.343C157.743 130.175 157.719 130.044 157.566 129.948L156.582 129.332C155.469 128.635 154.563 128.843 153.866 129.957L150.973 134.58C150.801 134.855 150.578 134.906 150.303 134.734L149.159 134.018C148.915 133.865 148.879 133.651 149.051 133.376ZM159.194 131.318L156.63 135.415C156.534 135.567 156.563 135.691 156.715 135.787L158.18 136.704C158.76 137.067 159.26 137.2 159.682 137.103C160.119 137.016 160.519 136.682 160.882 136.102L161.669 134.843C162.032 134.264 162.158 133.758 162.045 133.327C161.948 132.905 161.61 132.512 161.03 132.149L159.566 131.232C159.413 131.137 159.289 131.165 159.194 131.318Z" fill="white"/>
        </g>
        <g opacity="0.5" filter="url(#filter4_d_32_2895)">
            <path d="M143.9 139.5L144.614 138.726C145.518 137.748 146.491 137.237 147.533 137.196C148.564 137.167 149.562 137.599 150.527 138.49L154.494 142.153C155.473 143.057 155.983 144.018 156.023 145.035C156.065 146.078 155.634 147.089 154.731 148.068L150.629 152.513C150.41 152.751 150.187 152.766 149.963 152.559L140.521 143.84C140.296 143.632 140.293 143.409 140.513 143.171L141.666 141.921C141.874 141.696 142.09 141.688 142.315 141.895L143.029 142.555L143.102 142.475C142.694 141.511 142.96 140.519 143.9 139.5ZM145.35 144.698L150.21 149.186C150.342 149.308 150.475 149.296 150.61 149.15L152.788 146.789C153.667 145.837 153.618 144.909 152.639 144.005L148.83 140.488C147.852 139.584 146.923 139.609 146.044 140.561L145.165 141.514C144.164 142.598 144.226 143.66 145.35 144.698Z" fill="white"/>
        </g>
        <g opacity="0.5" filter="url(#filter5_d_32_2895)">
            <path d="M136.48 146.507L137.81 145.447C138.05 145.257 138.265 145.281 138.455 145.52L146.461 155.574C146.652 155.813 146.627 156.028 146.388 156.219L145.058 157.279C144.819 157.47 144.604 157.446 144.413 157.206L143.774 156.404L143.689 156.471C143.829 156.935 143.786 157.43 143.56 157.955C143.32 158.492 142.953 158.956 142.461 159.349L141.679 159.971C141.44 160.162 141.225 160.138 141.034 159.898L140.16 158.8C139.947 158.533 139.977 158.325 140.25 158.176L141.517 157.167C142.685 156.235 142.759 155.129 141.739 153.848L136.407 147.152C136.216 146.913 136.241 146.698 136.48 146.507Z" fill="white"/>
        </g>
        <g opacity="0.5" filter="url(#filter6_d_32_2895)">
            <path d="M127.597 152.628L131.874 150.101C132.138 149.945 132.347 149.999 132.503 150.263L133.176 151.402C133.322 151.65 133.264 151.852 133 152.007L129.095 154.315C128.088 154.91 127.79 155.557 128.202 156.254L128.367 156.533C128.733 157.153 129.376 157.411 130.297 157.306L133.544 157.017C134.554 156.922 135.37 156.994 135.992 157.233C136.614 157.472 137.14 157.956 137.57 158.684C138.751 160.683 138.233 162.338 136.017 163.647L132.158 165.928C131.911 166.074 131.709 166.016 131.553 165.752L130.88 164.613C130.725 164.35 130.771 164.145 131.019 163.998L134.413 161.993C134.878 161.718 135.184 161.422 135.331 161.105C135.487 160.803 135.488 160.521 135.332 160.257L135.181 160.002C134.888 159.506 134.237 159.305 133.227 159.4L129.901 159.609C128.885 159.729 128.083 159.628 127.496 159.306C126.902 159.009 126.376 158.472 125.919 157.698C124.729 155.683 125.288 153.993 127.597 152.628Z" fill="white"/>
        </g>
        <g opacity="0.5" filter="url(#filter7_d_32_2895)">
            <path d="M107.447 160.48L115.769 158.157C116.063 158.074 116.252 158.181 116.334 158.475L120.754 174.313C120.836 174.608 120.73 174.796 120.435 174.879L112.113 177.203C111.836 177.28 111.656 177.171 111.574 176.877L111.204 175.55C111.121 175.256 111.219 175.07 111.496 174.992L117.426 173.336C117.634 173.278 117.713 173.163 117.665 172.989L116.439 168.594C116.39 168.421 116.262 168.363 116.054 168.421L111.035 169.823C110.723 169.91 110.526 169.806 110.443 169.511L110.073 168.185C109.991 167.89 110.106 167.699 110.418 167.612L115.437 166.211C115.645 166.152 115.725 166.037 115.677 165.863L114.385 161.234C114.332 161.044 114.201 160.977 113.993 161.035L108.064 162.691C107.786 162.768 107.607 162.66 107.524 162.365L107.154 161.039C107.072 160.744 107.17 160.558 107.447 160.48Z" fill="white"/>
        </g>
        <g opacity="0.5" filter="url(#filter8_d_32_2895)">
            <path d="M103.671 161.062L105.712 160.848C106.106 160.807 106.22 160.949 106.055 161.274L103.165 168.173L107.31 174.065C107.538 174.349 107.474 174.509 107.116 174.547L105.048 174.763C104.708 174.798 104.459 174.67 104.302 174.379L101.644 169.988L101.537 169.999L99.9785 174.831C99.885 175.148 99.6771 175.324 99.3548 175.358L97.3139 175.571C96.938 175.61 96.8326 175.467 96.9977 175.142L99.7307 168.559L95.3943 162.388C95.1835 162.102 95.2481 161.942 95.5883 161.906L97.7097 161.685C98.0141 161.653 98.2448 161.782 98.4019 162.074L101.181 166.588L101.288 166.577L103.048 161.588C103.141 161.271 103.349 161.095 103.671 161.062Z" fill="white"/>
        </g>
        <g opacity="0.5" filter="url(#filter9_d_32_2895)">
            <path d="M91.9805 157.994L93.6774 158.112C93.9826 158.134 94.1247 158.297 94.1034 158.602L92.948 175.221C92.9267 175.526 92.7635 175.668 92.4582 175.647L90.7613 175.529C90.4561 175.508 90.3141 175.345 90.3353 175.039L90.4027 174.07L90.295 174.062C89.7978 174.984 88.8579 175.397 87.4753 175.3L86.1016 175.205C84.8087 175.115 83.8461 174.687 83.2137 173.921C82.5633 173.154 82.2849 172.097 82.3786 170.751L82.7531 165.364C82.8455 164.035 83.2675 163.027 84.019 162.339C84.7512 161.668 85.7638 161.378 87.0567 161.468L88.4304 161.564C89.813 161.66 90.6868 162.199 91.0515 163.18L91.1593 163.188L91.4908 158.42C91.512 158.115 91.6752 157.973 91.9805 157.994ZM88.8907 163.896L87.4631 163.797C86.1703 163.707 85.4776 164.326 85.3853 165.655L85.0257 170.827C84.9333 172.155 85.5335 172.865 86.8264 172.955L88.254 173.054C89.7264 173.157 90.5157 172.445 90.6218 170.918L90.9402 166.339C91.0463 164.813 90.3631 163.999 88.8907 163.896Z" fill="white"/>
        </g>
        <g opacity="0.5" filter="url(#filter10_d_32_2895)">
            <path d="M71.7418 158.367L77.3821 159.85C78.6703 160.189 79.5775 160.809 80.1036 161.711C80.6124 162.608 80.6998 163.691 80.3659 164.962L78.9935 170.185C78.655 171.473 78.0461 172.374 77.1668 172.887C76.2655 173.413 75.1707 173.507 73.8825 173.168L71.7413 172.605C70.4531 172.267 69.5459 171.646 69.0197 170.745C68.489 169.861 68.3929 168.775 68.7314 167.487L69.6028 164.17C69.6852 163.857 69.883 163.741 70.1964 163.824L77.1945 165.664C77.386 165.714 77.5046 165.652 77.5503 165.478L77.8454 164.355C78.1793 163.085 77.7109 162.282 76.4401 161.948L71.1654 160.561C70.8521 160.478 70.7366 160.281 70.8189 159.967L71.162 158.661C71.2352 158.383 71.4285 158.285 71.7418 158.367ZM76.7279 167.44L72.0538 166.21C71.8797 166.165 71.7698 166.229 71.724 166.403L71.2849 168.074C71.111 168.736 71.1332 169.253 71.3514 169.627C71.565 170.018 72.0025 170.301 72.664 170.475L74.1002 170.853C74.7617 171.026 75.2816 170.996 75.6599 170.76C76.0336 170.542 76.3074 170.102 76.4812 169.441L76.9204 167.769C76.9661 167.595 76.9019 167.485 76.7279 167.44Z" fill="white"/>
        </g>
        <g opacity="0.5" filter="url(#filter11_d_32_2895)">
            <path d="M66.7377 156.307L68.2968 156.988C68.5772 157.11 68.6563 157.311 68.534 157.592L63.3968 169.373C63.2745 169.653 63.0731 169.732 62.7926 169.61L61.2336 168.929C60.9531 168.807 60.8741 168.606 60.9964 168.325L61.4065 167.385L61.3075 167.341C60.9627 167.682 60.5053 167.875 59.9354 167.921C59.3491 167.96 58.7672 167.853 58.1898 167.601L57.2742 167.202C56.9937 167.079 56.9146 166.878 57.037 166.597L57.5982 165.31C57.7349 164.997 57.9327 164.926 58.1915 165.098L59.6763 165.746C61.0456 166.343 62.0576 165.891 62.7124 164.39L66.1336 156.544C66.2559 156.264 66.4573 156.185 66.7377 156.307Z" fill="white"/>
        </g>
        <g opacity="0.5" filter="url(#filter12_d_32_2895)">
            <path d="M53.192 167.579L51.9897 169.722C51.8488 169.973 51.6527 170.028 51.4016 169.887L49.8713 169.028C49.6202 168.887 49.5651 168.691 49.706 168.44L50.9083 166.297C51.0581 166.03 51.2585 165.967 51.5096 166.108L53.0399 166.967C53.291 167.108 53.3417 167.312 53.192 167.579ZM60.8285 153.969L54.5396 165.177C54.3899 165.444 54.1894 165.507 53.9383 165.366L52.4316 164.52C52.1648 164.37 52.1062 164.162 52.256 163.895L58.5449 152.687C58.6329 152.53 58.726 152.438 58.824 152.41C58.8975 152.389 59.0049 152.419 59.1461 152.498L60.6529 153.344C60.9197 153.494 60.9782 153.702 60.8285 153.969Z" fill="white"/>
        </g>
        <g opacity="0.5" filter="url(#filter13_d_32_2895)">
            <path d="M48.9321 145.39L53.5971 148.89C54.6625 149.689 55.2691 150.606 55.4167 151.639C55.55 152.662 55.2225 153.699 54.4343 154.75L51.195 159.071C50.396 160.136 49.4926 160.741 48.4848 160.885C47.4517 161.033 46.4025 160.707 45.337 159.907L43.566 158.579C42.5006 157.779 41.894 156.863 41.7464 155.83C41.588 154.811 41.9083 153.768 42.7073 152.703L44.7642 149.959C44.9585 149.7 45.1853 149.667 45.4445 149.862L51.2326 154.204C51.3909 154.323 51.5241 154.311 51.6321 154.167L52.3285 153.238C53.1167 152.186 52.9853 151.266 51.9342 150.478L47.5716 147.205C47.3124 147.01 47.28 146.783 47.4744 146.524L48.2842 145.444C48.4569 145.214 48.6729 145.196 48.9321 145.39ZM50.1312 155.673L46.2653 152.773C46.1213 152.665 45.9953 152.683 45.8874 152.827L44.8508 154.21C44.4405 154.757 44.2659 155.245 44.3272 155.673C44.3776 156.116 44.6764 156.543 45.2235 156.953L46.4113 157.844C46.9585 158.255 47.4516 158.422 47.8907 158.347C48.319 158.286 48.7384 157.981 49.1487 157.434L50.1852 156.051C50.2932 155.907 50.2752 155.781 50.1312 155.673Z" fill="white"/>
        </g>
        <g opacity="0.5" filter="url(#filter14_d_32_2895)">
            <path d="M45.216 141.83L46.365 143.084C46.5717 143.31 46.5623 143.526 46.3367 143.733L36.863 152.418C36.6374 152.624 36.4213 152.615 36.2146 152.389L35.0656 151.135C34.8589 150.909 34.8683 150.693 35.0939 150.486L35.8104 149.83L35.7375 149.75C34.7424 150.076 33.7768 149.728 32.8406 148.706L32.0381 147.83C31.1505 146.861 30.735 145.875 30.7916 144.87C30.8481 143.866 31.374 142.908 32.3691 141.996L39.0962 135.829C39.3218 135.622 39.544 135.638 39.7628 135.877L40.9118 137.131C41.1185 137.357 41.1091 137.573 40.8835 137.78L34.236 143.874C33.2542 144.774 33.207 145.709 34.0946 146.677L34.9518 147.613C35.9488 148.702 37.0112 148.729 38.139 147.695L44.5676 141.802C44.7932 141.595 45.0093 141.604 45.216 141.83Z" fill="white"/>
        </g>
        <g opacity="0.5" filter="url(#filter15_d_32_2895)">
            <path d="M32.1068 127.644L33.2857 126.882C33.5275 126.725 33.7364 126.783 33.9122 127.055L36.0669 130.389C36.7899 131.507 37.042 132.577 36.8229 133.598C36.5941 134.603 35.9281 135.463 34.8248 136.176L30.2907 139.109C29.1723 139.833 28.1154 140.088 27.12 139.874C26.0997 139.655 25.228 138.986 24.5049 137.868L22.3503 134.534C22.1744 134.262 22.2149 134.043 22.4719 133.877L23.6507 133.114C23.8925 132.958 24.1014 133.016 24.2773 133.288L26.2267 136.304C26.9302 137.392 27.8412 137.575 28.9596 136.851L33.3124 134.036C34.4308 133.312 34.6382 132.406 33.9347 131.318L31.9853 128.302C31.8094 128.03 31.8499 127.811 32.1068 127.644Z" fill="white"/>
        </g>
        <g opacity="0.5" filter="url(#filter16_d_32_2895)">
            <path d="M29.0424 116.44L31.3536 121.795C31.8815 123.018 31.9529 124.114 31.5679 125.085C31.1757 126.038 30.3765 126.776 29.1702 127.297L24.2129 129.438C22.9901 129.966 21.9056 130.043 20.9592 129.667C19.9893 129.282 19.2404 128.478 18.7125 127.255L17.8351 125.222C17.3072 124 17.2358 122.903 17.6208 121.933C17.9893 120.97 18.785 120.224 20.0078 119.696L23.1557 118.336C23.4531 118.208 23.666 118.292 23.7944 118.59L26.662 125.233C26.7405 125.415 26.8624 125.47 27.0276 125.399L28.0934 124.938C29.2997 124.417 29.6425 123.554 29.1217 122.347L26.9603 117.34C26.8319 117.042 26.9165 116.829 27.2139 116.701L28.4532 116.165C28.7176 116.051 28.914 116.143 29.0424 116.44ZM24.9766 125.961L23.0613 121.524C22.9899 121.359 22.8716 121.312 22.7064 121.383L21.1201 122.068C20.4921 122.339 20.0983 122.676 19.9387 123.079C19.7625 123.488 19.81 124.007 20.081 124.635L20.6695 125.998C20.9406 126.626 21.2855 127.016 21.7042 127.169C22.1064 127.328 22.6214 127.273 23.2494 127.001L24.8357 126.316C25.0009 126.245 25.0479 126.126 24.9766 125.961Z" fill="white"/>
        </g>
        <g opacity="0.5" filter="url(#filter17_d_32_2895)">
            <path d="M16.0367 106.276L19.2526 105.7C19.5715 105.643 19.7563 105.757 19.807 106.04L20.1349 107.874C20.1856 108.157 20.0515 108.328 19.7326 108.385L16.5166 108.96C16.2332 109.011 16.0661 108.895 16.0154 108.611L15.6874 106.777C15.6368 106.494 15.7532 106.327 16.0367 106.276Z" fill="white"/>
        </g>
        <g opacity="0.5" filter="url(#filter18_d_32_2895)">
            <path d="M16.1736 89.1667L16.0897 90.8386C16.0726 91.1802 16.1211 91.471 16.2352 91.711C16.3502 91.9331 16.4778 92.0837 16.618 92.1628C17.0216 92.3813 17.2161 92.6344 17.2017 92.922L17.1164 94.6209C17.1011 94.9265 16.9406 95.0717 16.635 95.0563L8.16766 94.631C7.86204 94.6157 7.7169 94.4552 7.73224 94.1496L8.19104 85.0081C8.20728 84.6845 8.36821 84.5304 8.67383 84.5457L10.2109 84.6229C10.5165 84.6383 10.6612 84.8077 10.6449 85.1313L10.2958 92.0886L15.2036 92.3351C14.338 91.9852 13.9355 91.208 13.9959 90.0036L14.0758 88.4126C14.1408 87.1182 14.5319 86.1466 15.2494 85.4978C15.9488 84.848 16.9547 84.5561 18.2671 84.622L21.3951 84.7791C22.7075 84.8451 23.7137 85.2651 24.4138 86.0391C25.1138 86.8132 25.4309 87.8565 25.3651 89.1688L25.25 91.4609C25.1833 92.7912 24.7629 93.8064 23.9888 94.5065C23.2156 95.1886 22.1729 95.4966 20.8605 95.4307L20.1594 95.3955C19.8358 95.3793 19.6817 95.2183 19.697 94.9127L19.7823 93.2139C19.7976 92.9082 19.9671 92.7636 20.2907 92.7798L20.9648 92.8137C22.2772 92.8796 22.9658 92.2654 23.0308 90.971L23.1079 89.4339C23.1747 88.1036 22.5519 87.4055 21.2396 87.3396L18.516 87.2028C17.707 87.1621 17.1236 87.295 16.7658 87.6015C16.4089 87.8899 16.2115 88.4117 16.1736 89.1667Z" fill="white"/>
        </g>
        <g opacity="0.5" filter="url(#filter19_d_32_2895)">
            <path d="M29.051 70.886L28.4931 72.5214C28.3942 72.811 28.2001 72.9064 27.9105 72.8075L22.2635 70.8796L10.7446 72.2821C10.5851 72.3037 10.4744 72.2659 10.4125 72.1687C10.3505 72.0715 10.3399 71.9633 10.3806 71.844L11.0781 69.7997C11.1536 69.5782 11.3565 69.4573 11.6868 69.4369L19.7859 68.6928L19.8382 68.5395L13.8663 63.0485C13.6116 62.8474 13.5249 62.6276 13.6063 62.3891L14.3038 60.3448C14.3503 60.2085 14.4248 60.1294 14.5274 60.1073C14.6358 60.0683 14.7466 60.1061 14.8596 60.2207L23.1179 68.3754L28.7648 70.3033C29.0544 70.4021 29.1498 70.5964 29.051 70.886Z" fill="white"/>
        </g>
        <g opacity="0.5" filter="url(#filter20_d_32_2895)">
            <path d="M36.3069 55.9179L33.4157 60.9828C32.7554 62.1396 31.9219 62.8554 30.9152 63.1303C29.9174 63.3895 28.8481 63.1933 27.7071 62.5415L23.0182 59.863C21.8616 59.2023 21.1492 58.3808 20.8809 57.3983C20.606 56.3914 20.7987 55.3095 21.459 54.1527L22.5566 52.2299C23.2169 51.0731 24.0505 50.3573 25.0571 50.0824C26.0482 49.7986 27.122 49.987 28.2786 50.6477L31.256 52.3486C31.5374 52.5093 31.5977 52.7303 31.4371 53.0117L27.8499 59.2959C27.7517 59.4679 27.7808 59.5985 27.9371 59.6878L28.9452 60.2637C30.0862 60.9154 30.9823 60.6707 31.6338 59.5296L34.3376 54.7929C34.4982 54.5116 34.7192 54.4512 35.0005 54.6119L36.1727 55.2816C36.4228 55.4244 36.4675 55.6365 36.3069 55.9179ZM26.2556 58.3852L28.6516 54.1879C28.7408 54.0316 28.7073 53.9088 28.551 53.8195L27.0506 52.9624C26.4566 52.6231 25.951 52.5105 25.5336 52.6245C25.1005 52.7295 24.7145 53.079 24.3754 53.6731L23.6392 54.9627C23.3001 55.5568 23.1954 56.067 23.325 56.4935C23.439 56.911 23.793 57.2894 24.3869 57.6287L25.8873 58.4858C26.0436 58.5751 26.1664 58.5416 26.2556 58.3852Z" fill="white"/>
        </g>
        <g opacity="0.5" filter="url(#filter21_d_32_2895)">
            <path d="M41.1967 49.5735L40.5141 50.3753C39.6507 51.3895 38.6989 51.9383 37.6587 52.0217C36.6302 52.0914 35.6158 51.7001 34.6156 50.848L30.505 47.3461C29.4911 46.4823 28.9434 45.5429 28.8621 44.5277C28.7787 43.4872 29.1687 42.4598 30.0321 41.4455L33.9526 36.8403C34.1626 36.5936 34.3841 36.5694 34.617 36.7679L44.4002 45.1023C44.6332 45.3008 44.6446 45.5234 44.4346 45.7701L43.332 47.0653C43.1336 47.2983 42.918 47.3156 42.685 47.1171L41.9451 46.4868L41.8751 46.569C42.3213 47.5166 42.0951 48.5181 41.1967 49.5735ZM39.5404 44.4382L34.505 40.1484C34.3679 40.0317 34.2353 40.0487 34.1069 40.1995L32.0242 42.646C31.1841 43.6328 31.271 44.5581 32.2849 45.4219L36.2311 48.7837C37.245 49.6475 38.172 49.586 39.0121 48.5992L39.8522 47.6123C40.809 46.4884 40.7051 45.4304 39.5404 44.4382Z" fill="white"/>
        </g>
        <g opacity="0.5" filter="url(#filter22_d_32_2895)">
            <path d="M48.3279 42.256L47.0411 43.3684C46.8096 43.5686 46.5938 43.5529 46.3938 43.3213L37.9918 33.5961C37.7917 33.3645 37.8075 33.1487 38.0389 32.9485L39.3257 31.8361C39.5572 31.6359 39.773 31.6516 39.973 31.8832L40.6438 32.6596L40.7255 32.5889C40.5674 32.1307 40.5908 31.6346 40.7956 31.1007C41.0139 30.555 41.3614 30.0761 41.838 29.6641L42.5937 29.0107C42.8252 28.8106 43.041 28.8263 43.241 29.0578L44.1589 30.1203C44.3825 30.3791 44.3609 30.5881 44.0941 30.7474L42.8686 31.8069C41.7384 32.784 41.7087 33.8923 42.7796 35.1318L48.375 41.6084C48.5751 41.84 48.5593 42.0558 48.3279 42.256Z" fill="white"/>
        </g>
        <g opacity="0.5" filter="url(#filter23_d_32_2895)">
            <path d="M56.8567 35.8321L52.6853 38.5303C52.4284 38.6965 52.2169 38.6511 52.0508 38.3942L51.3326 37.2831C51.1762 37.0412 51.2265 36.8372 51.4835 36.671L55.2921 34.2073C56.2745 33.5719 56.5458 32.914 56.1061 32.2338L55.9302 31.9617C55.5394 31.357 54.8862 31.1257 53.9706 31.2677L50.7374 31.687C49.7321 31.8228 48.9139 31.7839 48.2829 31.5704C47.6519 31.3569 47.1068 30.8948 46.6476 30.1844C45.387 28.2343 45.8374 26.5602 47.9987 25.1622L51.762 22.7279C52.0038 22.5715 52.2078 22.6218 52.3739 22.8788L53.0921 23.9898C53.2582 24.2468 53.2203 24.4535 52.9785 24.61L49.6686 26.751C49.2152 27.0443 48.9213 27.3523 48.787 27.675C48.6429 27.9826 48.6539 28.2649 48.82 28.5218L48.9813 28.7713C49.2939 29.255 49.9529 29.429 50.9583 29.2932L54.2728 28.9499C55.2835 28.7892 56.0887 28.8579 56.6886 29.1559C57.2937 29.429 57.8406 29.9434 58.3292 30.6993C59.5995 32.6645 59.1087 34.3754 56.8567 35.8321Z" fill="white"/>
        </g>
        <g opacity="0.5" filter="url(#filter24_d_32_2895)">
            <path d="M76.5058 27.1626L68.2881 29.8306C67.997 29.9251 67.8043 29.8268 67.7099 29.5357L62.6357 13.8952C62.5413 13.6042 62.6396 13.4114 62.9306 13.3169L71.1484 10.649C71.4223 10.56 71.6065 10.6611 71.7009 10.9522L72.1259 12.262C72.2203 12.553 72.1305 12.743 71.8566 12.8319L66.0015 14.7329C65.796 14.7996 65.7211 14.9185 65.7766 15.0897L67.1847 19.43C67.2403 19.6012 67.3708 19.6535 67.5762 19.5868L72.5325 17.9777C72.8407 17.8777 73.042 17.9732 73.1364 18.2642L73.5614 19.574C73.6558 19.8651 73.5489 20.0606 73.2408 20.1607L68.2844 21.7698C68.079 21.8365 68.004 21.9555 68.0596 22.1267L69.5427 26.6981C69.6038 26.8864 69.737 26.9473 69.9425 26.8806L75.7976 24.9797C76.0716 24.8907 76.2557 24.9918 76.3502 25.2829L76.7751 26.5927C76.8695 26.8837 76.7798 27.0737 76.5058 27.1626Z" fill="white"/>
        </g>
        <g opacity="0.5" filter="url(#filter25_d_32_2895)">
            <path d="M80.2066 26.3862L78.1766 26.6855C77.7848 26.7433 77.6646 26.6064 77.8159 26.2748L80.412 19.26L76.0224 13.5483C75.782 13.2744 75.8398 13.1112 76.1959 13.0587L78.2527 12.7554C78.591 12.7055 78.8448 12.8228 79.0141 13.1071L81.8547 17.3825L81.9615 17.3667L83.3146 12.473C83.3946 12.1519 83.5949 11.9677 83.9155 11.9204L85.9455 11.6211C86.3195 11.5659 86.4308 11.7042 86.2795 12.0358L83.8271 18.7291L88.4202 24.7111C88.6429 24.9876 88.585 25.1507 88.2467 25.2006L86.1365 25.5118C85.8338 25.5564 85.5978 25.4366 85.4285 25.1522L82.4614 20.7591L82.3546 20.7748L80.8075 25.8336C80.7275 26.1547 80.5272 26.3389 80.2066 26.3862Z" fill="white"/>
        </g>
        <g opacity="0.5" filter="url(#filter26_d_32_2895)">
            <path d="M92.2401 28.9125L90.5399 28.86C90.2341 28.8505 90.0859 28.6929 90.0953 28.387L90.6094 11.736C90.6189 11.4301 90.7765 11.2819 91.0824 11.2914L92.7826 11.3439C93.0884 11.3533 93.2366 11.511 93.2272 11.8168L93.1972 12.7884L93.3051 12.7917C93.7664 11.8515 94.6897 11.4028 96.075 11.4456L97.4513 11.4881C98.7467 11.5282 99.7251 11.9186 100.387 12.6594C101.066 13.4007 101.385 14.446 101.343 15.7954L101.177 21.1928C101.136 22.5242 100.753 23.5479 100.028 24.2638C99.3224 24.9624 98.3218 25.2916 97.0264 25.2516L95.65 25.2091C94.2647 25.1663 93.3709 24.6614 92.9685 23.6945L92.8606 23.6912L92.7131 28.4679C92.7036 28.7738 92.546 28.922 92.2401 28.9125ZM95.1002 22.896L96.5305 22.9402C97.8259 22.9802 98.4941 22.3345 98.5352 21.0032L98.6952 15.8216C98.7363 14.4903 98.1092 13.8046 96.8138 13.7645L95.3835 13.7203C93.9082 13.6748 93.1469 14.4166 93.0997 15.9459L92.958 20.5337C92.9108 22.063 93.6249 22.8504 95.1002 22.896Z" fill="white"/>
        </g>
        <g opacity="0.5" filter="url(#filter27_d_32_2895)">
            <path d="M112.205 27.6392L106.507 26.3934C105.206 26.1089 104.274 25.5273 103.71 24.6487C103.165 23.7739 103.032 22.6946 103.312 21.4109L104.465 16.1354C104.749 14.8341 105.32 13.9086 106.177 13.359C107.056 12.7957 108.146 12.6563 109.447 12.9408L111.61 13.4138C112.911 13.6983 113.843 14.2799 114.407 15.1585C114.974 16.0196 115.116 17.1007 114.831 18.402L114.099 21.752C114.03 22.0685 113.837 22.1922 113.521 22.123L106.452 20.5773C106.258 20.535 106.142 20.6018 106.104 20.7776L105.856 21.9118C105.576 23.1956 106.077 23.9778 107.361 24.2584L112.689 25.4235C113.005 25.4927 113.129 25.6856 113.06 26.0021L112.772 27.321C112.71 27.6023 112.521 27.7084 112.205 27.6392ZM106.844 18.7836L111.565 19.816C111.741 19.8544 111.848 19.7857 111.886 19.6099L112.255 17.9217C112.401 17.2535 112.358 16.7372 112.124 16.3729C111.894 15.991 111.445 15.727 110.777 15.5809L109.326 15.2637C108.658 15.1176 108.14 15.1701 107.772 15.4212C107.408 15.6548 107.152 16.1057 107.006 16.774L106.637 18.4621C106.599 18.638 106.668 18.7451 106.844 18.7836Z" fill="white"/>
        </g>
        <g opacity="0.5" filter="url(#filter28_d_32_2895)">
            <path d="M117.389 29.4706L115.803 28.855C115.518 28.7442 115.431 28.5462 115.541 28.2609L120.19 16.2791C120.301 15.9938 120.499 15.9066 120.784 16.0173L122.369 16.633C122.655 16.7437 122.742 16.9417 122.631 17.227L122.26 18.1835L122.361 18.2226C122.691 17.8682 123.14 17.6564 123.708 17.5871C124.292 17.5243 124.878 17.6069 125.465 17.8349L126.397 18.1965C126.682 18.3072 126.769 18.5053 126.658 18.7905L126.151 20.0995C126.027 20.4183 125.832 20.4972 125.566 20.3361L124.056 19.7498C122.664 19.2091 121.671 19.7022 121.079 21.2293L117.983 29.2088C117.872 29.4941 117.674 29.5814 117.389 29.4706Z" fill="white"/>
        </g>
        <g opacity="0.5" filter="url(#filter29_d_32_2895)">
            <path d="M130.496 17.6373L131.61 15.4474C131.741 15.1908 131.934 15.1278 132.191 15.2584L133.755 16.0547C134.012 16.1854 134.075 16.3791 133.944 16.6358L132.83 18.8256C132.691 19.0983 132.493 19.1694 132.237 19.0387L130.673 18.2424C130.416 18.1117 130.357 17.91 130.496 17.6373ZM123.419 31.5464L129.247 20.0918C129.386 19.8191 129.584 19.7481 129.84 19.8787L131.38 20.6628C131.653 20.8017 131.72 21.0074 131.581 21.2802L125.753 32.7347C125.671 32.8951 125.582 32.9911 125.485 33.0226C125.413 33.0462 125.304 33.0213 125.16 32.9478L123.62 32.1637C123.347 32.0249 123.28 31.8191 123.419 31.5464Z" fill="white"/>
        </g>
        <g opacity="0.5" filter="url(#filter30_d_32_2895)">
            <path d="M135.599 39.5539L130.797 36.2442C129.7 35.4883 129.057 34.597 128.868 33.5704C128.694 32.554 128.979 31.5048 129.725 30.4226L132.788 25.9754C133.543 24.8784 134.422 24.2377 135.423 24.0534C136.449 23.8644 137.511 24.1479 138.607 24.9038L140.43 26.1602C141.527 26.9161 142.17 27.8074 142.359 28.834C142.558 29.8458 142.28 30.9002 141.525 31.9972L139.58 34.8211C139.396 35.088 139.17 35.1295 138.904 34.9456L132.946 30.8391C132.783 30.7268 132.65 30.7447 132.548 30.893L131.89 31.8491C131.144 32.9313 131.313 33.8452 132.394 34.5909L136.885 37.6861C137.152 37.8699 137.193 38.0953 137.01 38.3621L136.244 39.4739C136.08 39.7111 135.865 39.7378 135.599 39.5539ZM133.987 29.3271L137.967 32.0698C138.115 32.172 138.24 32.1489 138.342 32.0007L139.322 30.5776C139.71 30.0143 139.865 29.5198 139.787 29.0941C139.718 28.6536 139.403 28.2393 138.84 27.8511L137.617 27.0084C137.054 26.6202 136.554 26.4727 136.119 26.5659C135.693 26.6442 135.286 26.9651 134.898 27.5284L133.918 28.9515C133.816 29.0997 133.839 29.2249 133.987 29.3271Z" fill="white"/>
        </g>
        <g opacity="0.5" filter="url(#filter31_d_32_2895)">
            <path d="M139.541 42.9473L138.343 41.74C138.128 41.5228 138.129 41.3064 138.346 41.0907L147.465 32.0344C147.682 31.8188 147.898 31.8196 148.114 32.0368L149.312 33.2442C149.527 33.4614 149.527 33.6778 149.31 33.8934L148.62 34.5783L148.696 34.655C149.677 34.2894 150.656 34.5985 151.632 35.5822L152.469 36.4255C153.395 37.3581 153.849 38.3273 153.833 39.3329C153.817 40.3386 153.329 41.317 152.372 42.2683L145.896 48.699C145.679 48.9147 145.456 48.9075 145.228 48.6775L144.03 47.4702C143.814 47.253 143.815 47.0365 144.032 46.8209L150.431 40.4663C151.376 39.5277 151.386 38.5921 150.46 37.6594L149.566 36.7586C148.527 35.711 147.464 35.7262 146.378 36.8044L140.191 42.9497C139.973 43.1653 139.757 43.1645 139.541 42.9473Z" fill="white"/>
        </g>
        <g opacity="0.5" filter="url(#filter32_d_32_2895)">
            <path d="M153.369 56.7265L152.222 57.5359C151.987 57.7019 151.776 57.6525 151.589 57.3877L149.302 54.1439C148.534 53.0553 148.24 51.9967 148.417 50.968C148.605 49.9541 149.236 49.0684 150.31 48.3109L154.722 45.1978C155.811 44.4299 156.856 44.1326 157.86 44.306C158.888 44.4837 159.786 45.1168 160.553 46.2054L162.84 49.4493C163.027 49.7141 162.995 49.9347 162.745 50.1111L161.598 50.9205C161.363 51.0865 161.152 51.0371 160.965 50.7723L158.896 47.8375C158.149 46.7783 157.232 46.6326 156.143 47.4005L151.907 50.3891C150.819 51.157 150.648 52.0706 151.395 53.1298L153.464 56.0646C153.651 56.3294 153.619 56.5501 153.369 56.7265Z" fill="white"/>
        </g>
        <g opacity="0.5" filter="url(#filter33_d_32_2895)">
            <path d="M156.885 67.7431L154.356 62.4877C153.779 61.2874 153.662 60.1947 154.007 59.2095C154.36 58.2405 155.129 57.4711 156.313 56.9011L161.178 54.5586C162.378 53.9808 163.459 53.8601 164.42 54.1966C165.404 54.5415 166.186 55.3141 166.763 56.5144L167.723 58.5095C168.3 59.7098 168.417 60.8026 168.072 61.7878C167.743 62.7651 166.978 63.5427 165.778 64.1205L162.689 65.608C162.397 65.7485 162.181 65.6728 162.04 65.3809L158.903 58.8603C158.817 58.6818 158.693 58.6317 158.531 58.7097L157.485 59.2134C156.301 59.7834 155.994 60.6604 156.564 61.8445L158.928 66.7593C159.069 67.0513 158.993 67.2675 158.701 67.4081L157.485 67.9937C157.225 68.1186 157.025 68.0351 156.885 67.7431ZM160.557 58.0638L162.653 62.419C162.731 62.5812 162.851 62.6233 163.013 62.5452L164.57 61.7956C165.186 61.4989 165.566 61.1463 165.709 60.7378C165.868 60.3215 165.8 59.8052 165.503 59.1888L164.859 57.8506C164.563 57.2342 164.202 56.8584 163.778 56.7232C163.369 56.5802 162.857 56.6571 162.241 56.9538L160.684 57.7034C160.521 57.7815 160.479 57.9016 160.557 58.0638Z" fill="white"/>
        </g>
        <g opacity="0.5" filter="url(#filter34_d_32_2895)">
            <path d="M170.341 77.4029L167.152 78.1129C166.836 78.1833 166.646 78.078 166.584 77.7969L166.179 75.9783C166.117 75.6972 166.243 75.5214 166.56 75.451L169.749 74.741C170.03 74.6784 170.201 74.7876 170.264 75.0688L170.669 76.8873C170.731 77.1684 170.622 77.3403 170.341 77.4029Z" fill="white"/>
        </g>
    </g>
    <path d="M155.597 92.7791C155.597 126.944 127.912 154.639 93.7597 154.639C59.608 154.639 31.9222 126.944 31.9222 92.7791C31.9222 58.6148 59.608 30.9194 93.7597 30.9194C127.912 30.9194 155.597 58.6148 155.597 92.7791Z" stroke="white"/>
    <path d="M72.9879 109.625H77.3899C80.3659 109.625 81.8539 108.095 81.8539 105.037V84.8867C81.8539 81.828 80.3659 80.2987 77.3899 80.2987H72.9879C70.0119 80.2987 68.5239 81.828 68.5239 84.8867V105.037C68.5239 108.095 70.0119 109.625 72.9879 109.625ZM78.2579 114.895H72.0579C68.9992 114.895 66.6226 114.047 64.9279 112.353C63.2332 110.658 62.3859 108.302 62.3859 105.285V84.6387C62.3859 81.58 63.2332 79.224 64.9279 77.5707C66.6226 75.876 68.9992 75.0287 72.0579 75.0287H78.2579C81.2752 75.0287 83.6312 75.876 85.3259 77.5707C87.0206 79.224 87.8679 81.58 87.8679 84.6387V105.285C87.8679 108.302 87.0206 110.658 85.3259 112.353C83.6312 114.047 81.2752 114.895 78.2579 114.895ZM108.658 93.8147H104.814C104.028 93.8147 103.367 93.9594 102.83 94.2487C102.334 94.538 102.003 94.848 101.838 95.1787C101.383 96.1294 100.825 96.6047 100.164 96.6047H96.2578C95.5551 96.6047 95.2038 96.2534 95.2038 95.5507V76.0827C95.2038 75.38 95.5551 75.0287 96.2578 75.0287H117.276C118.02 75.0287 118.392 75.38 118.392 76.0827V79.6167C118.392 80.3194 118.02 80.6707 117.276 80.6707H101.28V91.9547C101.982 89.9294 103.718 88.9167 106.488 88.9167H110.146C113.122 88.9167 115.395 89.702 116.966 91.2727C118.536 92.802 119.322 95.0754 119.322 98.0927V105.285C119.322 108.302 118.474 110.658 116.78 112.353C115.085 114.047 112.729 114.895 109.712 114.895H104.442C101.383 114.895 99.0064 114.047 97.3118 112.353C95.6584 110.658 94.8318 108.302 94.8318 105.285V103.673C94.8318 102.929 95.1831 102.557 95.8858 102.557H99.7918C100.494 102.557 100.846 102.929 100.846 103.673V105.223C100.846 108.24 102.334 109.749 105.31 109.749H108.844C111.902 109.749 113.432 108.24 113.432 105.223V98.9607C113.432 97.1007 113.06 95.778 112.316 94.9927C111.613 94.2074 110.394 93.8147 108.658 93.8147Z" fill="white"/>
    <defs>
        <filter id="filter0_d_32_2895" x="3.70111" y="10.5156" width="179.563" height="174.803" filterUnits="userSpaceOnUse" color-interpolation-filters="sRGB">
            <feFlood flood-opacity="0" result="BackgroundImageFix"/>
            <feColorMatrix in="SourceAlpha" type="matrix" values="0 0 0 0 0 0 0 0 0 0 0 0 0 0 0 0 0 0 127 0" result="hardAlpha"/>
            <feOffset dy="4"/>
            <feGaussianBlur stdDeviation="2"/>
            <feComposite in2="hardAlpha" operator="out"/>
            <feColorMatrix type="matrix" values="0 0 0 0 0 0 0 0 0 0 0 0 0 0 0 0 0 0 0.25 0"/>
            <feBlend mode="normal" in2="BackgroundImageFix" result="effect1_dropShadow_32_2895"/>
            <feBlend mode="normal" in="SourceGraphic" in2="effect1_dropShadow_32_2895" result="shape"/>
        </filter>
        <filter id="filter1_d_32_2895" x="157.027" y="93.9764" width="26.2371" height="20.1615" filterUnits="userSpaceOnUse" color-interpolation-filters="sRGB">
            <feFlood flood-opacity="0" result="BackgroundImageFix"/>
            <feColorMatrix in="SourceAlpha" type="matrix" values="0 0 0 0 0 0 0 0 0 0 0 0 0 0 0 0 0 0 127 0" result="hardAlpha"/>
            <feOffset dy="4"/>
            <feGaussianBlur stdDeviation="2"/>
            <feComposite in2="hardAlpha" operator="out"/>
            <feColorMatrix type="matrix" values="0 0 0 0 0 0 0 0 0 0 0 0 0 0 0 0 0 0 0.25 0"/>
            <feBlend mode="normal" in2="BackgroundImageFix" result="effect1_dropShadow_32_2895"/>
            <feBlend mode="normal" in="SourceGraphic" in2="effect1_dropShadow_32_2895" result="shape"/>
        </filter>
        <filter id="filter2_d_32_2895" x="150.856" y="111.977" width="28.8717" height="26.366" filterUnits="userSpaceOnUse" color-interpolation-filters="sRGB">
            <feFlood flood-opacity="0" result="BackgroundImageFix"/>
            <feColorMatrix in="SourceAlpha" type="matrix" values="0 0 0 0 0 0 0 0 0 0 0 0 0 0 0 0 0 0 127 0" result="hardAlpha"/>
            <feOffset dy="4"/>
            <feGaussianBlur stdDeviation="2"/>
            <feComposite in2="hardAlpha" operator="out"/>
            <feColorMatrix type="matrix" values="0 0 0 0 0 0 0 0 0 0 0 0 0 0 0 0 0 0 0.25 0"/>
            <feBlend mode="normal" in2="BackgroundImageFix" result="effect1_dropShadow_32_2895"/>
            <feBlend mode="normal" in="SourceGraphic" in2="effect1_dropShadow_32_2895" result="shape"/>
        </filter>
        <filter id="filter3_d_32_2895" x="144.736" y="124.885" width="25.2994" height="24.3033" filterUnits="userSpaceOnUse" color-interpolation-filters="sRGB">
            <feFlood flood-opacity="0" result="BackgroundImageFix"/>
            <feColorMatrix in="SourceAlpha" type="matrix" values="0 0 0 0 0 0 0 0 0 0 0 0 0 0 0 0 0 0 127 0" result="hardAlpha"/>
            <feOffset dy="4"/>
            <feGaussianBlur stdDeviation="2"/>
            <feComposite in2="hardAlpha" operator="out"/>
            <feColorMatrix type="matrix" values="0 0 0 0 0 0 0 0 0 0 0 0 0 0 0 0 0 0 0.25 0"/>
            <feBlend mode="normal" in2="BackgroundImageFix" result="effect1_dropShadow_32_2895"/>
            <feBlend mode="normal" in="SourceGraphic" in2="effect1_dropShadow_32_2895" result="shape"/>
        </filter>
        <filter id="filter4_d_32_2895" x="136.183" y="135.651" width="25.3857" height="25.2194" filterUnits="userSpaceOnUse" color-interpolation-filters="sRGB">
            <feFlood flood-opacity="0" result="BackgroundImageFix"/>
            <feColorMatrix in="SourceAlpha" type="matrix" values="0 0 0 0 0 0 0 0 0 0 0 0 0 0 0 0 0 0 127 0" result="hardAlpha"/>
            <feOffset dy="4"/>
            <feGaussianBlur stdDeviation="2"/>
            <feComposite in2="hardAlpha" operator="out"/>
            <feColorMatrix type="matrix" values="0 0 0 0 0 0 0 0 0 0 0 0 0 0 0 0 0 0 0.25 0"/>
            <feBlend mode="normal" in2="BackgroundImageFix" result="effect1_dropShadow_32_2895"/>
            <feBlend mode="normal" in="SourceGraphic" in2="effect1_dropShadow_32_2895" result="shape"/>
        </filter>
        <filter id="filter5_d_32_2895" x="128.743" y="145.161" width="22.0045" height="23.0963" filterUnits="userSpaceOnUse" color-interpolation-filters="sRGB">
            <feFlood flood-opacity="0" result="BackgroundImageFix"/>
            <feColorMatrix in="SourceAlpha" type="matrix" values="0 0 0 0 0 0 0 0 0 0 0 0 0 0 0 0 0 0 127 0" result="hardAlpha"/>
            <feOffset dy="4"/>
            <feGaussianBlur stdDeviation="2"/>
            <feComposite in2="hardAlpha" operator="out"/>
            <feColorMatrix type="matrix" values="0 0 0 0 0 0 0 0 0 0 0 0 0 0 0 0 0 0 0.25 0"/>
            <feBlend mode="normal" in2="BackgroundImageFix" result="effect1_dropShadow_32_2895"/>
            <feBlend mode="normal" in="SourceGraphic" in2="effect1_dropShadow_32_2895" result="shape"/>
        </filter>
        <filter id="filter6_d_32_2895" x="120.134" y="149.826" width="23.2072" height="24.7059" filterUnits="userSpaceOnUse" color-interpolation-filters="sRGB">
            <feFlood flood-opacity="0" result="BackgroundImageFix"/>
            <feColorMatrix in="SourceAlpha" type="matrix" values="0 0 0 0 0 0 0 0 0 0 0 0 0 0 0 0 0 0 127 0" result="hardAlpha"/>
            <feOffset dy="4"/>
            <feGaussianBlur stdDeviation="2"/>
            <feComposite in2="hardAlpha" operator="out"/>
            <feColorMatrix type="matrix" values="0 0 0 0 0 0 0 0 0 0 0 0 0 0 0 0 0 0 0.25 0"/>
            <feBlend mode="normal" in2="BackgroundImageFix" result="effect1_dropShadow_32_2895"/>
            <feBlend mode="normal" in="SourceGraphic" in2="effect1_dropShadow_32_2895" result="shape"/>
        </filter>
        <filter id="filter7_d_32_2895" x="103.031" y="158.033" width="21.8461" height="27.2856" filterUnits="userSpaceOnUse" color-interpolation-filters="sRGB">
            <feFlood flood-opacity="0" result="BackgroundImageFix"/>
            <feColorMatrix in="SourceAlpha" type="matrix" values="0 0 0 0 0 0 0 0 0 0 0 0 0 0 0 0 0 0 127 0" result="hardAlpha"/>
            <feOffset dy="4"/>
            <feGaussianBlur stdDeviation="2"/>
            <feComposite in2="hardAlpha" operator="out"/>
            <feColorMatrix type="matrix" values="0 0 0 0 0 0 0 0 0 0 0 0 0 0 0 0 0 0 0.25 0"/>
            <feBlend mode="normal" in2="BackgroundImageFix" result="effect1_dropShadow_32_2895"/>
            <feBlend mode="normal" in="SourceGraphic" in2="effect1_dropShadow_32_2895" result="shape"/>
        </filter>
        <filter id="filter8_d_32_2895" x="91.078" y="160.786" width="20.6552" height="22.8686" filterUnits="userSpaceOnUse" color-interpolation-filters="sRGB">
            <feFlood flood-opacity="0" result="BackgroundImageFix"/>
            <feColorMatrix in="SourceAlpha" type="matrix" values="0 0 0 0 0 0 0 0 0 0 0 0 0 0 0 0 0 0 127 0" result="hardAlpha"/>
            <feOffset dy="4"/>
            <feGaussianBlur stdDeviation="2"/>
            <feComposite in2="hardAlpha" operator="out"/>
            <feColorMatrix type="matrix" values="0 0 0 0 0 0 0 0 0 0 0 0 0 0 0 0 0 0 0.25 0"/>
            <feBlend mode="normal" in2="BackgroundImageFix" result="effect1_dropShadow_32_2895"/>
            <feBlend mode="normal" in="SourceGraphic" in2="effect1_dropShadow_32_2895" result="shape"/>
        </filter>
        <filter id="filter9_d_32_2895" x="78.0883" y="157.391" width="20.047" height="26.288" filterUnits="userSpaceOnUse" color-interpolation-filters="sRGB">
            <feFlood flood-opacity="0" result="BackgroundImageFix"/>
            <feColorMatrix in="SourceAlpha" type="matrix" values="0 0 0 0 0 0 0 0 0 0 0 0 0 0 0 0 0 0 127 0" result="hardAlpha"/>
            <feOffset dy="4"/>
            <feGaussianBlur stdDeviation="2"/>
            <feComposite in2="hardAlpha" operator="out"/>
            <feColorMatrix type="matrix" values="0 0 0 0 0 0 0 0 0 0 0 0 0 0 0 0 0 0 0.25 0"/>
            <feBlend mode="normal" in2="BackgroundImageFix" result="effect1_dropShadow_32_2895"/>
            <feBlend mode="normal" in="SourceGraphic" in2="effect1_dropShadow_32_2895" result="shape"/>
        </filter>
        <filter id="filter10_d_32_2895" x="63.6678" y="158.216" width="21.7617" height="24.0164" filterUnits="userSpaceOnUse" color-interpolation-filters="sRGB">
            <feFlood flood-opacity="0" result="BackgroundImageFix"/>
            <feColorMatrix in="SourceAlpha" type="matrix" values="0 0 0 0 0 0 0 0 0 0 0 0 0 0 0 0 0 0 127 0" result="hardAlpha"/>
            <feOffset dy="4"/>
            <feGaussianBlur stdDeviation="2"/>
            <feComposite in2="hardAlpha" operator="out"/>
            <feColorMatrix type="matrix" values="0 0 0 0 0 0 0 0 0 0 0 0 0 0 0 0 0 0 0.25 0"/>
            <feBlend mode="normal" in2="BackgroundImageFix" result="effect1_dropShadow_32_2895"/>
            <feBlend mode="normal" in="SourceGraphic" in2="effect1_dropShadow_32_2895" result="shape"/>
        </filter>
        <filter id="filter11_d_32_2895" x="52.8535" y="154.396" width="19.864" height="23.3974" filterUnits="userSpaceOnUse" color-interpolation-filters="sRGB">
            <feFlood flood-opacity="0" result="BackgroundImageFix"/>
            <feColorMatrix in="SourceAlpha" type="matrix" values="0 0 0 0 0 0 0 0 0 0 0 0 0 0 0 0 0 0 127 0" result="hardAlpha"/>
            <feOffset dy="4"/>
            <feGaussianBlur stdDeviation="2"/>
            <feComposite in2="hardAlpha" operator="out"/>
            <feColorMatrix type="matrix" values="0 0 0 0 0 0 0 0 0 0 0 0 0 0 0 0 0 0 0.25 0"/>
            <feBlend mode="normal" in2="BackgroundImageFix" result="effect1_dropShadow_32_2895"/>
            <feBlend mode="normal" in="SourceGraphic" in2="effect1_dropShadow_32_2895" result="shape"/>
        </filter>
        <filter id="filter12_d_32_2895" x="45.4947" y="152.287" width="19.5584" height="25.812" filterUnits="userSpaceOnUse" color-interpolation-filters="sRGB">
            <feFlood flood-opacity="0" result="BackgroundImageFix"/>
            <feColorMatrix in="SourceAlpha" type="matrix" values="0 0 0 0 0 0 0 0 0 0 0 0 0 0 0 0 0 0 127 0" result="hardAlpha"/>
            <feOffset dy="4"/>
            <feGaussianBlur stdDeviation="2"/>
            <feComposite in2="hardAlpha" operator="out"/>
            <feColorMatrix type="matrix" values="0 0 0 0 0 0 0 0 0 0 0 0 0 0 0 0 0 0 0.25 0"/>
            <feBlend mode="normal" in2="BackgroundImageFix" result="effect1_dropShadow_32_2895"/>
            <feBlend mode="normal" in="SourceGraphic" in2="effect1_dropShadow_32_2895" result="shape"/>
        </filter>
        <filter id="filter13_d_32_2895" x="36.1969" y="145.034" width="24.7478" height="25.3855" filterUnits="userSpaceOnUse" color-interpolation-filters="sRGB">
            <feFlood flood-opacity="0" result="BackgroundImageFix"/>
            <feColorMatrix in="SourceAlpha" type="matrix" values="0 0 0 0 0 0 0 0 0 0 0 0 0 0 0 0 0 0 127 0" result="hardAlpha"/>
            <feOffset dy="4"/>
            <feGaussianBlur stdDeviation="2"/>
            <feComposite in2="hardAlpha" operator="out"/>
            <feColorMatrix type="matrix" values="0 0 0 0 0 0 0 0 0 0 0 0 0 0 0 0 0 0 0.25 0"/>
            <feBlend mode="normal" in2="BackgroundImageFix" result="effect1_dropShadow_32_2895"/>
            <feBlend mode="normal" in="SourceGraphic" in2="effect1_dropShadow_32_2895" result="shape"/>
        </filter>
        <filter id="filter14_d_32_2895" x="25.2842" y="135.519" width="25.3909" height="25.2089" filterUnits="userSpaceOnUse" color-interpolation-filters="sRGB">
            <feFlood flood-opacity="0" result="BackgroundImageFix"/>
            <feColorMatrix in="SourceAlpha" type="matrix" values="0 0 0 0 0 0 0 0 0 0 0 0 0 0 0 0 0 0 127 0" result="hardAlpha"/>
            <feOffset dy="4"/>
            <feGaussianBlur stdDeviation="2"/>
            <feComposite in2="hardAlpha" operator="out"/>
            <feColorMatrix type="matrix" values="0 0 0 0 0 0 0 0 0 0 0 0 0 0 0 0 0 0 0.25 0"/>
            <feBlend mode="normal" in2="BackgroundImageFix" result="effect1_dropShadow_32_2895"/>
            <feBlend mode="normal" in="SourceGraphic" in2="effect1_dropShadow_32_2895" result="shape"/>
        </filter>
        <filter id="filter15_d_32_2895" x="18.0865" y="126.647" width="24.2523" height="22.735" filterUnits="userSpaceOnUse" color-interpolation-filters="sRGB">
            <feFlood flood-opacity="0" result="BackgroundImageFix"/>
            <feColorMatrix in="SourceAlpha" type="matrix" values="0 0 0 0 0 0 0 0 0 0 0 0 0 0 0 0 0 0 127 0" result="hardAlpha"/>
            <feOffset dy="4"/>
            <feGaussianBlur stdDeviation="2"/>
            <feComposite in2="hardAlpha" operator="out"/>
            <feColorMatrix type="matrix" values="0 0 0 0 0 0 0 0 0 0 0 0 0 0 0 0 0 0 0.25 0"/>
            <feBlend mode="normal" in2="BackgroundImageFix" result="effect1_dropShadow_32_2895"/>
            <feBlend mode="normal" in="SourceGraphic" in2="effect1_dropShadow_32_2895" result="shape"/>
        </filter>
        <filter id="filter16_d_32_2895" x="12.1659" y="115.895" width="24.8462" height="23.2025" filterUnits="userSpaceOnUse" color-interpolation-filters="sRGB">
            <feFlood flood-opacity="0" result="BackgroundImageFix"/>
            <feColorMatrix in="SourceAlpha" type="matrix" values="0 0 0 0 0 0 0 0 0 0 0 0 0 0 0 0 0 0 127 0" result="hardAlpha"/>
            <feOffset dy="4"/>
            <feGaussianBlur stdDeviation="2"/>
            <feComposite in2="hardAlpha" operator="out"/>
            <feColorMatrix type="matrix" values="0 0 0 0 0 0 0 0 0 0 0 0 0 0 0 0 0 0 0.25 0"/>
            <feBlend mode="normal" in2="BackgroundImageFix" result="effect1_dropShadow_32_2895"/>
            <feBlend mode="normal" in="SourceGraphic" in2="effect1_dropShadow_32_2895" result="shape"/>
        </filter>
        <filter id="filter17_d_32_2895" x="11.6114" y="105.615" width="12.5996" height="11.4216" filterUnits="userSpaceOnUse" color-interpolation-filters="sRGB">
            <feFlood flood-opacity="0" result="BackgroundImageFix"/>
            <feColorMatrix in="SourceAlpha" type="matrix" values="0 0 0 0 0 0 0 0 0 0 0 0 0 0 0 0 0 0 127 0" result="hardAlpha"/>
            <feOffset dy="4"/>
            <feGaussianBlur stdDeviation="2"/>
            <feComposite in2="hardAlpha" operator="out"/>
            <feColorMatrix type="matrix" values="0 0 0 0 0 0 0 0 0 0 0 0 0 0 0 0 0 0 0.25 0"/>
            <feBlend mode="normal" in2="BackgroundImageFix" result="effect1_dropShadow_32_2895"/>
            <feBlend mode="normal" in="SourceGraphic" in2="effect1_dropShadow_32_2895" result="shape"/>
        </filter>
        <filter id="filter18_d_32_2895" x="3.70111" y="84.1182" width="25.8737" height="19.5224" filterUnits="userSpaceOnUse" color-interpolation-filters="sRGB">
            <feFlood flood-opacity="0" result="BackgroundImageFix"/>
            <feColorMatrix in="SourceAlpha" type="matrix" values="0 0 0 0 0 0 0 0 0 0 0 0 0 0 0 0 0 0 127 0" result="hardAlpha"/>
            <feOffset dy="4"/>
            <feGaussianBlur stdDeviation="2"/>
            <feComposite in2="hardAlpha" operator="out"/>
            <feColorMatrix type="matrix" values="0 0 0 0 0 0 0 0 0 0 0 0 0 0 0 0 0 0 0.25 0"/>
            <feBlend mode="normal" in2="BackgroundImageFix" result="effect1_dropShadow_32_2895"/>
            <feBlend mode="normal" in="SourceGraphic" in2="effect1_dropShadow_32_2895" result="shape"/>
        </filter>
        <filter id="filter19_d_32_2895" x="6.24984" y="59.9615" width="28.6145" height="25.8751" filterUnits="userSpaceOnUse" color-interpolation-filters="sRGB">
            <feFlood flood-opacity="0" result="BackgroundImageFix"/>
            <feColorMatrix in="SourceAlpha" type="matrix" values="0 0 0 0 0 0 0 0 0 0 0 0 0 0 0 0 0 0 127 0" result="hardAlpha"/>
            <feOffset dy="4"/>
            <feGaussianBlur stdDeviation="2"/>
            <feComposite in2="hardAlpha" operator="out"/>
            <feColorMatrix type="matrix" values="0 0 0 0 0 0 0 0 0 0 0 0 0 0 0 0 0 0 0.25 0"/>
            <feBlend mode="normal" in2="BackgroundImageFix" result="effect1_dropShadow_32_2895"/>
            <feBlend mode="normal" in="SourceGraphic" in2="effect1_dropShadow_32_2895" result="shape"/>
        </filter>
        <filter id="filter20_d_32_2895" x="15.3843" y="48.5719" width="25.2171" height="24.0454" filterUnits="userSpaceOnUse" color-interpolation-filters="sRGB">
            <feFlood flood-opacity="0" result="BackgroundImageFix"/>
            <feColorMatrix in="SourceAlpha" type="matrix" values="0 0 0 0 0 0 0 0 0 0 0 0 0 0 0 0 0 0 127 0" result="hardAlpha"/>
            <feOffset dy="4"/>
            <feGaussianBlur stdDeviation="2"/>
            <feComposite in2="hardAlpha" operator="out"/>
            <feColorMatrix type="matrix" values="0 0 0 0 0 0 0 0 0 0 0 0 0 0 0 0 0 0 0.25 0"/>
            <feBlend mode="normal" in2="BackgroundImageFix" result="effect1_dropShadow_32_2895"/>
            <feBlend mode="normal" in="SourceGraphic" in2="effect1_dropShadow_32_2895" result="shape"/>
        </filter>
        <filter id="filter21_d_32_2895" x="23.3193" y="36.4702" width="25.4303" height="25.0917" filterUnits="userSpaceOnUse" color-interpolation-filters="sRGB">
            <feFlood flood-opacity="0" result="BackgroundImageFix"/>
            <feColorMatrix in="SourceAlpha" type="matrix" values="0 0 0 0 0 0 0 0 0 0 0 0 0 0 0 0 0 0 127 0" result="hardAlpha"/>
            <feOffset dy="4"/>
            <feGaussianBlur stdDeviation="2"/>
            <feComposite in2="hardAlpha" operator="out"/>
            <feColorMatrix type="matrix" values="0 0 0 0 0 0 0 0 0 0 0 0 0 0 0 0 0 0 0.25 0"/>
            <feBlend mode="normal" in2="BackgroundImageFix" result="effect1_dropShadow_32_2895"/>
            <feBlend mode="normal" in="SourceGraphic" in2="effect1_dropShadow_32_2895" result="shape"/>
        </filter>
        <filter id="filter22_d_32_2895" x="33.6917" y="28.7105" width="22.2514" height="22.9581" filterUnits="userSpaceOnUse" color-interpolation-filters="sRGB">
            <feFlood flood-opacity="0" result="BackgroundImageFix"/>
            <feColorMatrix in="SourceAlpha" type="matrix" values="0 0 0 0 0 0 0 0 0 0 0 0 0 0 0 0 0 0 127 0" result="hardAlpha"/>
            <feOffset dy="4"/>
            <feGaussianBlur stdDeviation="2"/>
            <feComposite in2="hardAlpha" operator="out"/>
            <feColorMatrix type="matrix" values="0 0 0 0 0 0 0 0 0 0 0 0 0 0 0 0 0 0 0.25 0"/>
            <feBlend mode="normal" in2="BackgroundImageFix" result="effect1_dropShadow_32_2895"/>
            <feBlend mode="normal" in="SourceGraphic" in2="effect1_dropShadow_32_2895" result="shape"/>
        </filter>
        <filter id="filter23_d_32_2895" x="40.7568" y="22.0827" width="23.4778" height="24.741" filterUnits="userSpaceOnUse" color-interpolation-filters="sRGB">
            <feFlood flood-opacity="0" result="BackgroundImageFix"/>
            <feColorMatrix in="SourceAlpha" type="matrix" values="0 0 0 0 0 0 0 0 0 0 0 0 0 0 0 0 0 0 127 0" result="hardAlpha"/>
            <feOffset dy="4"/>
            <feGaussianBlur stdDeviation="2"/>
            <feComposite in2="hardAlpha" operator="out"/>
            <feColorMatrix type="matrix" values="0 0 0 0 0 0 0 0 0 0 0 0 0 0 0 0 0 0 0.25 0"/>
            <feBlend mode="normal" in2="BackgroundImageFix" result="effect1_dropShadow_32_2895"/>
            <feBlend mode="normal" in="SourceGraphic" in2="effect1_dropShadow_32_2895" result="shape"/>
        </filter>
        <filter id="filter24_d_32_2895" x="58.4941" y="10.5156" width="22.4227" height="27.4568" filterUnits="userSpaceOnUse" color-interpolation-filters="sRGB">
            <feFlood flood-opacity="0" result="BackgroundImageFix"/>
            <feColorMatrix in="SourceAlpha" type="matrix" values="0 0 0 0 0 0 0 0 0 0 0 0 0 0 0 0 0 0 127 0" result="hardAlpha"/>
            <feOffset dy="4"/>
            <feGaussianBlur stdDeviation="2"/>
            <feComposite in2="hardAlpha" operator="out"/>
            <feColorMatrix type="matrix" values="0 0 0 0 0 0 0 0 0 0 0 0 0 0 0 0 0 0 0.25 0"/>
            <feBlend mode="normal" in2="BackgroundImageFix" result="effect1_dropShadow_32_2895"/>
            <feBlend mode="normal" in="SourceGraphic" in2="effect1_dropShadow_32_2895" result="shape"/>
        </filter>
        <filter id="filter25_d_32_2895" x="71.5816" y="11.5029" width="21.1726" height="23.2693" filterUnits="userSpaceOnUse" color-interpolation-filters="sRGB">
            <feFlood flood-opacity="0" result="BackgroundImageFix"/>
            <feColorMatrix in="SourceAlpha" type="matrix" values="0 0 0 0 0 0 0 0 0 0 0 0 0 0 0 0 0 0 127 0" result="hardAlpha"/>
            <feOffset dy="4"/>
            <feGaussianBlur stdDeviation="2"/>
            <feComposite in2="hardAlpha" operator="out"/>
            <feColorMatrix type="matrix" values="0 0 0 0 0 0 0 0 0 0 0 0 0 0 0 0 0 0 0.25 0"/>
            <feBlend mode="normal" in2="BackgroundImageFix" result="effect1_dropShadow_32_2895"/>
            <feBlend mode="normal" in="SourceGraphic" in2="effect1_dropShadow_32_2895" result="shape"/>
        </filter>
        <filter id="filter26_d_32_2895" x="86.0812" y="11.2772" width="19.3913" height="25.9038" filterUnits="userSpaceOnUse" color-interpolation-filters="sRGB">
            <feFlood flood-opacity="0" result="BackgroundImageFix"/>
            <feColorMatrix in="SourceAlpha" type="matrix" values="0 0 0 0 0 0 0 0 0 0 0 0 0 0 0 0 0 0 127 0" result="hardAlpha"/>
            <feOffset dy="4"/>
            <feGaussianBlur stdDeviation="2"/>
            <feComposite in2="hardAlpha" operator="out"/>
            <feColorMatrix type="matrix" values="0 0 0 0 0 0 0 0 0 0 0 0 0 0 0 0 0 0 0.25 0"/>
            <feBlend mode="normal" in2="BackgroundImageFix" result="effect1_dropShadow_32_2895"/>
            <feBlend mode="normal" in="SourceGraphic" in2="effect1_dropShadow_32_2895" result="shape"/>
        </filter>
        <filter id="filter27_d_32_2895" x="98.419" y="12.0468" width="21.3055" height="23.7193" filterUnits="userSpaceOnUse" color-interpolation-filters="sRGB">
            <feFlood flood-opacity="0" result="BackgroundImageFix"/>
            <feColorMatrix in="SourceAlpha" type="matrix" values="0 0 0 0 0 0 0 0 0 0 0 0 0 0 0 0 0 0 127 0" result="hardAlpha"/>
            <feOffset dy="4"/>
            <feGaussianBlur stdDeviation="2"/>
            <feComposite in2="hardAlpha" operator="out"/>
            <feColorMatrix type="matrix" values="0 0 0 0 0 0 0 0 0 0 0 0 0 0 0 0 0 0 0.25 0"/>
            <feBlend mode="normal" in2="BackgroundImageFix" result="effect1_dropShadow_32_2895"/>
            <feBlend mode="normal" in="SourceGraphic" in2="effect1_dropShadow_32_2895" result="shape"/>
        </filter>
        <filter id="filter28_d_32_2895" x="111.375" y="15.8512" width="19.4492" height="23.3491" filterUnits="userSpaceOnUse" color-interpolation-filters="sRGB">
            <feFlood flood-opacity="0" result="BackgroundImageFix"/>
            <feColorMatrix in="SourceAlpha" type="matrix" values="0 0 0 0 0 0 0 0 0 0 0 0 0 0 0 0 0 0 127 0" result="hardAlpha"/>
            <feOffset dy="4"/>
            <feGaussianBlur stdDeviation="2"/>
            <feComposite in2="hardAlpha" operator="out"/>
            <feColorMatrix type="matrix" values="0 0 0 0 0 0 0 0 0 0 0 0 0 0 0 0 0 0 0.25 0"/>
            <feBlend mode="normal" in2="BackgroundImageFix" result="effect1_dropShadow_32_2895"/>
            <feBlend mode="normal" in="SourceGraphic" in2="effect1_dropShadow_32_2895" result="shape"/>
        </filter>
        <filter id="filter29_d_32_2895" x="119.211" y="15.0624" width="18.9292" height="26.0814" filterUnits="userSpaceOnUse" color-interpolation-filters="sRGB">
            <feFlood flood-opacity="0" result="BackgroundImageFix"/>
            <feColorMatrix in="SourceAlpha" type="matrix" values="0 0 0 0 0 0 0 0 0 0 0 0 0 0 0 0 0 0 127 0" result="hardAlpha"/>
            <feOffset dy="4"/>
            <feGaussianBlur stdDeviation="2"/>
            <feComposite in2="hardAlpha" operator="out"/>
            <feColorMatrix type="matrix" values="0 0 0 0 0 0 0 0 0 0 0 0 0 0 0 0 0 0 0.25 0"/>
            <feBlend mode="normal" in2="BackgroundImageFix" result="effect1_dropShadow_32_2895"/>
            <feBlend mode="normal" in="SourceGraphic" in2="effect1_dropShadow_32_2895" result="shape"/>
        </filter>
        <filter id="filter30_d_32_2895" x="123.351" y="22.5288" width="24.5475" height="25.3622" filterUnits="userSpaceOnUse" color-interpolation-filters="sRGB">
            <feFlood flood-opacity="0" result="BackgroundImageFix"/>
            <feColorMatrix in="SourceAlpha" type="matrix" values="0 0 0 0 0 0 0 0 0 0 0 0 0 0 0 0 0 0 127 0" result="hardAlpha"/>
            <feOffset dy="4"/>
            <feGaussianBlur stdDeviation="2"/>
            <feComposite in2="hardAlpha" operator="out"/>
            <feColorMatrix type="matrix" values="0 0 0 0 0 0 0 0 0 0 0 0 0 0 0 0 0 0 0.25 0"/>
            <feBlend mode="normal" in2="BackgroundImageFix" result="effect1_dropShadow_32_2895"/>
            <feBlend mode="normal" in="SourceGraphic" in2="effect1_dropShadow_32_2895" result="shape"/>
        </filter>
        <filter id="filter31_d_32_2895" x="134.02" y="31.711" width="25.321" height="25.3115" filterUnits="userSpaceOnUse" color-interpolation-filters="sRGB">
            <feFlood flood-opacity="0" result="BackgroundImageFix"/>
            <feColorMatrix in="SourceAlpha" type="matrix" values="0 0 0 0 0 0 0 0 0 0 0 0 0 0 0 0 0 0 127 0" result="hardAlpha"/>
            <feOffset dy="4"/>
            <feGaussianBlur stdDeviation="2"/>
            <feComposite in2="hardAlpha" operator="out"/>
            <feColorMatrix type="matrix" values="0 0 0 0 0 0 0 0 0 0 0 0 0 0 0 0 0 0 0.25 0"/>
            <feBlend mode="normal" in2="BackgroundImageFix" result="effect1_dropShadow_32_2895"/>
            <feBlend mode="normal" in="SourceGraphic" in2="effect1_dropShadow_32_2895" result="shape"/>
        </filter>
        <filter id="filter32_d_32_2895" x="142.89" y="42.7851" width="24.23" height="22.9998" filterUnits="userSpaceOnUse" color-interpolation-filters="sRGB">
            <feFlood flood-opacity="0" result="BackgroundImageFix"/>
            <feColorMatrix in="SourceAlpha" type="matrix" values="0 0 0 0 0 0 0 0 0 0 0 0 0 0 0 0 0 0 127 0" result="hardAlpha"/>
            <feOffset dy="4"/>
            <feGaussianBlur stdDeviation="2"/>
            <feComposite in2="hardAlpha" operator="out"/>
            <feColorMatrix type="matrix" values="0 0 0 0 0 0 0 0 0 0 0 0 0 0 0 0 0 0 0.25 0"/>
            <feBlend mode="normal" in2="BackgroundImageFix" result="effect1_dropShadow_32_2895"/>
            <feBlend mode="normal" in="SourceGraphic" in2="effect1_dropShadow_32_2895" result="shape"/>
        </filter>
        <filter id="filter33_d_32_2895" x="148.542" y="52.7432" width="25.0073" height="23.5352" filterUnits="userSpaceOnUse" color-interpolation-filters="sRGB">
            <feFlood flood-opacity="0" result="BackgroundImageFix"/>
            <feColorMatrix in="SourceAlpha" type="matrix" values="0 0 0 0 0 0 0 0 0 0 0 0 0 0 0 0 0 0 127 0" result="hardAlpha"/>
            <feOffset dy="4"/>
            <feGaussianBlur stdDeviation="2"/>
            <feComposite in2="hardAlpha" operator="out"/>
            <feColorMatrix type="matrix" values="0 0 0 0 0 0 0 0 0 0 0 0 0 0 0 0 0 0 0.25 0"/>
            <feBlend mode="normal" in2="BackgroundImageFix" result="effect1_dropShadow_32_2895"/>
            <feBlend mode="normal" in="SourceGraphic" in2="effect1_dropShadow_32_2895" result="shape"/>
        </filter>
        <filter id="filter34_d_32_2895" x="162.085" y="74.6471" width="12.6772" height="11.5714" filterUnits="userSpaceOnUse" color-interpolation-filters="sRGB">
            <feFlood flood-opacity="0" result="BackgroundImageFix"/>
            <feColorMatrix in="SourceAlpha" type="matrix" values="0 0 0 0 0 0 0 0 0 0 0 0 0 0 0 0 0 0 127 0" result="hardAlpha"/>
            <feOffset dy="4"/>
            <feGaussianBlur stdDeviation="2"/>
            <feComposite in2="hardAlpha" operator="out"/>
            <feColorMatrix type="matrix" values="0 0 0 0 0 0 0 0 0 0 0 0 0 0 0 0 0 0 0.25 0"/>
            <feBlend mode="normal" in2="BackgroundImageFix" result="effect1_dropShadow_32_2895"/>
            <feBlend mode="normal" in="SourceGraphic" in2="effect1_dropShadow_32_2895" result="shape"/>
        </filter>
    </defs>
</svg>
