<svg width="38" height="49" viewBox="0 0 55 49" fill="none" xmlns="http://www.w3.org/2000/svg">
    <path d="M34.375 32.6562C34.375 33.6059 33.6059 34.375 32.6562 34.375H22.3438C21.3941 34.375 20.625 33.6059 20.625 32.6562V27.5H0V42.9688C0 45.7188 2.40625 48.125 5.15625 48.125H49.8438C52.5938 48.125 55 45.7188 55 42.9688V27.5H34.375V32.6562ZM49.8438 10.3125H41.25V5.15625C41.25 2.40625 38.8438 0 36.0938 0H18.9062C16.1562 0 13.75 2.40625 13.75 5.15625V10.3125H5.15625C2.40625 10.3125 0 12.7188 0 15.4688V24.0625H55V15.4688C55 12.7188 52.5938 10.3125 49.8438 10.3125ZM34.375 10.3125H20.625V6.875H34.375V10.3125Z" fill="#FEB061"/>
</svg>
