<svg width="67" height="52" viewBox="0 0 67 52" fill="none" xmlns="http://www.w3.org/2000/svg">
<path d="M12.539 37.7795H18.1693L15.3542 31.9216L12.539 37.7795ZM15.3542 22.6808L0 27.4387L2.34968 45.0698L15.3542 51.3305L28.3587 45.0698L30.7083 27.4387L15.3542 22.6808ZM24.9745 44.539H21.3835L19.4476 40.3567H11.2755L9.33959 44.539H5.74119L15.3542 25.8463L24.9745 44.539Z" fill="#FEB061"/>
<path d="M60.6069 33.5312C60.2389 33.4263 59.8709 33.3272 59.5028 33.2339C59.5642 33.0182 59.6187 32.8026 59.6732 32.5869C60.5115 29.1129 59.9595 26.3209 58.0988 25.4C56.3063 24.5198 53.3824 25.435 50.4244 27.6383C50.1314 27.8539 49.8451 28.0812 49.5725 28.3086C49.3885 28.157 49.1976 28.0055 49.0068 27.8598C45.9057 25.5049 42.7978 24.514 40.9371 25.4408C39.1515 26.3268 38.6198 28.9556 39.3695 32.243C39.4445 32.5694 39.5263 32.89 39.6217 33.2164C39.1855 33.3213 38.7561 33.4379 38.354 33.5603C34.7145 34.6387 32.1041 36.3407 32.1041 38.101C32.1041 39.9196 34.8849 41.744 38.6675 42.8514C38.9742 42.9389 39.2809 43.0263 39.5945 43.1021C39.4922 43.4518 39.4036 43.7957 39.3218 44.1513C38.6062 47.3863 39.1651 49.9509 40.9508 50.8311C42.791 51.7404 45.8853 50.8078 48.8977 48.552C49.1363 48.3713 49.3748 48.1848 49.6134 47.9866C49.9133 48.2373 50.2268 48.4762 50.5403 48.7094C53.4574 50.8544 56.3404 51.7229 58.1192 50.8427C59.9595 49.9334 60.5592 47.1764 59.7823 43.819C59.7209 43.5626 59.6528 43.3003 59.5778 43.0321C59.7959 42.9797 60.0072 42.9214 60.2185 42.8631C64.151 41.7498 67 39.9487 67 38.101C67 36.3348 64.3146 34.6212 60.6069 33.5312ZM51.3854 28.5825C53.9208 26.694 56.2859 25.9537 57.3627 26.4842C58.5146 27.0495 58.9576 29.3344 58.2351 32.3363C58.1874 32.5345 58.1397 32.7268 58.0784 32.9192C56.5653 32.6277 55.0318 32.4179 53.4915 32.3013C52.6054 31.2171 51.6376 30.1796 50.588 29.2062C50.8538 28.9905 51.1128 28.7865 51.3854 28.5825ZM43.4998 41.1261C43.8474 41.6332 44.2018 42.1403 44.5767 42.6358C43.5134 42.5367 42.457 42.391 41.4142 42.1986C41.7141 41.3593 42.089 40.4908 42.5252 39.6048C42.8387 40.1177 43.159 40.6248 43.4998 41.1261ZM41.4347 34.1141C42.4161 33.9275 43.4589 33.776 44.5426 33.6594C44.1814 34.1432 43.8269 34.6387 43.493 35.1399C43.159 35.6354 42.8319 36.1425 42.5252 36.6554C42.0958 35.7869 41.7346 34.9359 41.4347 34.1141ZM43.3021 38.1301C43.752 37.3257 44.2427 36.5388 44.7607 35.7636C45.2787 34.9884 45.8375 34.2365 46.4237 33.4962C47.446 33.4321 48.4888 33.3971 49.552 33.3971C50.6153 33.3971 51.6649 33.4321 52.6804 33.4962C53.2597 34.2306 53.8118 34.9826 54.3366 35.752C54.8614 36.5214 55.3521 37.3082 55.8156 38.1068C55.3589 38.9112 54.8682 39.7039 54.3434 40.485C53.8254 41.2602 53.2734 42.0121 52.694 42.7582C51.6785 42.8223 50.6221 42.8514 49.552 42.8514C48.482 42.8514 47.446 42.8223 46.4441 42.7698C45.8512 42.0296 45.2923 41.2718 44.7675 40.4966C44.2427 39.7214 43.7588 38.9345 43.3021 38.1301ZM55.6111 41.1145C55.9587 40.6015 56.2859 40.0828 56.6062 39.5582C57.0424 40.4033 57.4241 41.2602 57.758 42.1403C56.7016 42.3443 55.6316 42.5017 54.5547 42.6066C54.9227 42.117 55.2703 41.6157 55.6111 41.1145ZM56.5926 36.6554C56.2722 36.1425 55.9451 35.6296 55.6043 35.1283C55.2703 34.6328 54.9227 34.1432 54.5615 33.6594C55.6588 33.776 56.7084 33.9334 57.6899 34.1257C57.3763 34.9884 57.0083 35.8277 56.5926 36.6554ZM49.5657 30.098C50.2813 30.7625 50.9561 31.462 51.5831 32.1847C50.2336 32.1323 48.8773 32.1323 47.5278 32.1847C48.1957 31.4328 48.8841 30.7334 49.5657 30.098ZM41.6596 26.525C42.8046 25.9537 45.3468 26.7698 48.0254 28.7982C48.1957 28.9264 48.3661 29.0663 48.5433 29.2062C47.4869 30.1796 46.5123 31.2171 45.6194 32.3013C44.0791 32.4179 42.5524 32.6219 41.0394 32.9075C40.9508 32.6102 40.8758 32.3071 40.8008 32.004C40.1602 29.1829 40.5827 27.0554 41.6596 26.525ZM39.9898 41.8897C39.7035 41.8197 39.4241 41.744 39.1446 41.6624C37.6929 41.2718 36.0435 40.654 34.8508 39.8438C34.1624 39.4358 33.699 38.8063 33.5695 38.101C33.5695 37.0343 35.7232 35.6704 38.8311 34.7436C39.2196 34.627 39.6149 34.5221 40.0102 34.423C40.4737 35.6878 41.0326 36.9294 41.68 38.1301C41.0257 39.3483 40.46 40.6074 39.9898 41.8897ZM47.9368 47.6019C46.8122 48.4821 45.5104 49.1815 44.0928 49.6595C43.3362 49.9684 42.4638 49.9976 41.6869 49.7353C40.6032 49.199 40.1533 47.1414 40.7667 44.3728C40.8417 44.0464 40.9235 43.7199 41.0189 43.3994C42.5456 43.6791 44.0859 43.8715 45.6467 43.9706C46.5464 45.0606 47.5346 46.1039 48.591 47.0832C48.3729 47.2639 48.1549 47.4387 47.9368 47.6019ZM49.6066 46.1855C48.9114 45.5444 48.2162 44.8332 47.5414 44.0697C48.1957 44.093 48.8705 44.1046 49.552 44.1046C50.2541 44.1046 50.9424 44.093 51.624 44.0638C50.997 44.8041 50.3222 45.5094 49.6066 46.1855ZM58.5146 47.9342C58.4532 48.6453 58.0443 49.3098 57.39 49.7586C56.3063 50.2948 53.9958 49.5954 51.5013 47.7651C51.2151 47.5553 50.9288 47.328 50.6357 47.0948C51.6785 46.1097 52.6395 45.0664 53.5119 43.9706C55.0727 43.8598 56.6266 43.6558 58.1601 43.3586C58.2283 43.5975 58.2896 43.8365 58.3442 44.0697C58.6781 45.3287 58.7327 46.6402 58.5146 47.9342ZM59.755 41.6682C59.5642 41.7207 59.3733 41.7731 59.1757 41.8197C58.6986 40.5491 58.1124 39.3075 57.4377 38.101C58.092 36.9119 58.644 35.6878 59.1075 34.4346C59.4619 34.5221 59.8027 34.6153 60.1298 34.7086C63.3059 35.6412 65.5346 37.0285 65.5346 38.0893C65.5346 39.2318 63.156 40.7064 59.755 41.6682ZM49.552 40.7939C51.2764 40.7939 52.6736 39.599 52.6736 38.1243C52.6736 36.6496 51.2764 35.4547 49.552 35.4547C47.8277 35.4547 46.4305 36.6496 46.4305 38.1243C46.4305 39.599 47.8277 40.7939 49.552 40.7939Z" fill="#FEB061"/>
<path d="M34.7609 29.3743C34.3042 29.3743 33.8408 29.2694 33.4387 29.0712L29.2334 26.9437C28.6064 26.6406 28.9131 26.5357 29.1176 26.4774C29.9559 26.2267 30.1263 26.1743 31.0191 25.7371C31.1145 25.6905 31.2372 25.708 31.3326 25.7604L34.5632 27.3983C34.6791 27.4566 34.8427 27.4566 34.9517 27.3983L47.5401 21.1848C47.656 21.1265 47.731 21.0099 47.731 20.8934V8.46634C47.731 8.34394 47.656 8.23319 47.5333 8.16908L34.9517 1.96139C34.8359 1.90311 34.6791 1.90311 34.5632 1.96139L21.9885 8.1749C21.8658 8.23319 21.7908 8.34977 21.7908 8.47217V20.8934C21.7908 21.0099 21.8658 21.1265 21.9885 21.179L25.4371 22.881C27.3114 23.6795 28.4565 22.7411 28.4565 21.791V9.52719C28.4565 9.35232 28.62 9.21826 28.8245 9.21826H30.4193C30.617 9.21826 30.7874 9.35232 30.7874 9.52719V21.7968C30.7874 23.9302 29.4243 25.1542 27.0593 25.1542C26.33 25.1542 25.7575 25.1542 24.1626 24.4781L20.8639 22.8518C20.046 22.4497 19.5417 21.6977 19.5417 20.8875V8.46634C19.5417 7.66197 20.046 6.90422 20.8639 6.50204L33.4387 0.288526C34.2361 -0.0961754 35.2925 -0.0961754 36.0831 0.288526L48.6715 6.50786C49.4894 6.91005 49.9937 7.66197 49.9937 8.47217V20.8934C49.9937 21.6977 49.4894 22.4497 48.6715 22.8577L36.0831 29.0712C35.681 29.2694 35.2243 29.3743 34.7609 29.3743ZM44.9229 17.128C44.9229 14.8023 43.0827 14.1844 39.2183 13.7472C35.3061 13.3043 34.9108 13.0769 34.9108 12.2959C34.9108 11.6489 35.2448 10.7862 38.1414 10.7862C40.7245 10.7862 41.6787 11.2642 42.074 12.7563C42.1081 12.8962 42.258 13.0012 42.4284 13.0012H44.0642C44.1664 13.0012 44.2618 12.9662 44.33 12.9021C44.3981 12.838 44.4322 12.7505 44.4254 12.6631C44.1732 10.0926 42.1762 8.89768 38.1414 8.89768C34.5496 8.89768 32.4095 10.1917 32.4095 12.3658C32.4095 14.7207 34.5428 15.3735 37.9847 15.6649C42.1081 16.0088 42.4284 16.5276 42.4284 17.2212C42.4284 18.422 41.297 18.9349 38.6458 18.9349C35.3129 18.9349 34.5837 18.2179 34.3383 16.8015C34.3111 16.65 34.1611 16.5392 33.9771 16.5392H32.3482C32.1437 16.5392 31.9869 16.6791 31.9869 16.8482C31.9869 18.6609 33.1388 20.8234 38.6526 20.8234C42.6329 20.8176 44.9229 19.4711 44.9229 17.128Z" fill="#FEB061"/>
</svg>
